<svg height="549" width="1317" viewBox="363 96 1317 549" style="background-color:transparent;" preserveAspectRatio="xMinYMin meet" xmlns:xlink="http://www.w3.org/1999/xlink" xmlns="http://www.w3.org/2000/svg"><defs><style type="text/css">.svg-txt-center tspan {text-anchor: middle;}.svg-txt-right tspan {text-anchor: end;}</style></defs><g transform="translate(0,0)"><g transform="matrix(1,0,0,1,1485,275)"><path style="fill:none;stroke:#333333;stroke-width:3.0;;" d="m2.7888395390434355,0.259125970807116l177.022518283622,5.7562060242642765l-3.975387425997065,207.64099380265836l-175.61951788014474,-0.8216793078068657z"/></g></g><g transform="translate(0,0)"><g transform="matrix(1,0,0,1,739,106)"><path style="fill:none;stroke:#333333;stroke-width:3.0;;" d="m5.618159167427984,511.7715445569136l700.2023267551285,-8.120853706530665l0,-468.62710779628674l-86.1739738192133,0l-5.3944431312169785,-100.03390523563661l-107.71927143559897,0l-10.774525136238475,91.91305152910594l-253.14912826541106,8.120853706530665l-21.54179754291592,-75.67678340184939l-91.56480862726559,0l-10.774525136238475,75.67678340184939l-118.49733272853886,0z"/></g><text style="font-weight:bold; font-size: 12px; text-anchor: middle; font-family: arial,helvetica,sans-serif; fill: #333333;" class="svg-txt-center" y="357" x="1092"/><text style="font-weight:bold; font-size: 12px; text-anchor: middle; font-family: arial,helvetica,sans-serif; fill: #333333;" class="svg-txt-center" y="374" x="1092"/></g><g transform="translate(0,0)"><g transform="matrix(1,0,0,1,378,166)"><path style="fill:none;stroke:#333333;stroke-width:3.0;;" d="m0.875350578494445,75.96608864516686l109.09667980603984,-1.2054392220631456l0,-69.56183631351131l-13.426539830189041,0l-0.8404939722859316,-14.848782808414807l-16.783455889399274,0l-1.6787503753346067,13.643343586351664l-39.44249873823685,1.2054392220631456l-3.356370721984067,-11.233272536212018l-14.266471599149028,0l-1.6787503753346067,11.233272536212018l-18.462757223993307,0z"/></g><text style="font-weight:bold; font-size: 12px; text-anchor: middle; font-family: arial,helvetica,sans-serif; fill: #333333;" class="svg-txt-center" y="199" x="433">Controller</text><text style="font-weight:bold; font-size: 12px; text-anchor: middle; font-family: arial,helvetica,sans-serif; fill: #333333;" class="svg-txt-center" y="216" x="433"/></g><g transform="translate(0,0)"><g transform="matrix(1,0,0,1,1272,525)"><path style="fill:none;stroke:#333333;stroke-width:3.0;;" d="m0.8594351134309097,67.96965826146509l107.11310380956641,-1.0785508828986041l0,-62.23953775419433l-13.182420924185605,0l-0.8252122636989146,-13.285753039107986l-16.478302145955652,0l-1.648227641237614,12.207202156209384l-38.72536239754164,1.0785508828986041l-3.295345799766175,-10.050822795558123l-14.00708120643723,0l-1.648227641237614,10.050822795558123l-18.12707072901161,0z"/></g><text style="font-weight:bold; font-size: 12px; text-anchor: middle; font-family: arial,helvetica,sans-serif; fill: #333333;" class="svg-txt-center" y="563" x="1326">LuceneService</text></g><g transform="translate(0,0)"><g transform="matrix(1,0,0,1,1503,523)"><path style="fill:none;stroke:#333333;stroke-width:3.0;;" d="m0.03469242091847677,11.37604499864167l0.8276732485979085,50.251855145751215l18.217646201841685,11.347303704923467l-0.8282250812581321,-48.63116920517899"/><path style="fill:none;stroke:#333333;stroke-width:3.0;;" d="m42.2660401485311,0.030449090535174955c0,0 -39.74777614915867,7.294397367341528 -40.57538988639126,9.726472138266073c-0.828227786320192,2.4315981764639956 16.56120144944954,14.589615536254005 16.56120144944954,14.589615536254005l44.71481110358417,-13.778875403917432l-20.700757919745445,-10.537251986807691z"/><path style="fill:none;stroke:#333333;stroke-width:3.0;;" d="m62.96666281517355,10.568482162708769l-0.8276705435358485,50.251722758401066l-43.05890736360401,12.158083553465083l-0.9087926496507958,-48.63116920517899"/><path style="fill:none;stroke:#333333;stroke-width:3.0;;" d="m6.658848393251103,30.01618390017486l5.796488133858837,4.052747472761756"/></g><text style="font-weight:bold; font-size: 12px; text-anchor: middle; font-family: arial,helvetica,sans-serif; fill: #333333;" class="svg-txt-center" y="611" x="1534">Lucene Cache</text></g><g transform="translate(0,0)"><path style="fill:none;stroke:#333333;stroke-width:2;;" d="M1382,559 C1440.5,559 1440.5,559  1499,559"/><polyline style="fill:#ffffff;stroke:#333333;stroke-width:2;fill-opacity:0;" points="1481,569 1499,559 1481,549"/><text style="font-weight:Normal; font-size: 12px; text-anchor: middle; font-family: sans-serif; fill: #333333;" class="" y="544" x="1485"/><text style="font-weight:Normal; font-size: 12px; text-anchor: start; font-family: sans-serif; fill: #333333;" class="" y="559" x="1440"/><text style="font-weight:Normal; font-size: 12px; text-anchor: middle; font-family: sans-serif; fill: #333333;" class="" y="544" x="1396"/></g><g transform="translate(0,0)"><g transform="matrix(1,0,0,1,811,166)"><path style="fill:none;stroke:#333333;stroke-width:3.0;;" d="m1.225490809892223,76.96564244312958l152.73535172845578,-1.2213002644587134l0,-70.47712363342593l-18.79715576226466,0l-1.1766915612003042,-15.044161529578162l-23.496838245158983,0l-2.3502505254684496,13.82286126511945l-55.219498233531596,1.2213002644587134l-4.6989190107776935,-11.381078753793757l-19.973060238808642,0l-2.3502505254684496,11.381078753793757l-25.84786011359063,0z"/></g><text style="font-weight:bold; font-size: 12px; text-anchor: middle; font-family: arial,helvetica,sans-serif; fill: #333333;" class="svg-txt-center" y="208" x="888">MovieInfoService</text></g><g transform="translate(0,0)"><path style="fill:none;stroke:#333333;stroke-width:2;;" d="M967,204 C967,204 1009.6109828496554,262.0911000718688 1026,294 1054.7345816043176,349.94532487688645 1051.9018600384807,423.2741809345637 1094,470 1137.6066311154889,518.4001325811076 1268,559 1268,559"/><polyline style="fill:#ffffff;stroke:#333333;stroke-width:2;fill-opacity:0;" points="1248,563 1268,559 1254,544"/><text style="font-weight:Normal; font-size: 12px; text-anchor: middle; font-family: sans-serif; fill: #333333;" class="" y="538" x="1261"/><text style="font-weight:Normal; font-size: 12px; text-anchor: start; font-family: sans-serif; fill: #333333;" class="" y="382" x="1060"/><text style="font-weight:Normal; font-size: 12px; text-anchor: middle; font-family: sans-serif; fill: #333333;" class="" y="206" x="986"/></g><g transform="translate(0,0)"><path style="fill:none;stroke:#333333;stroke-width:2;;" d="M967,204 C1117.5,204 1117.5,204  1268,204"/><polyline style="fill:#ffffff;stroke:#333333;stroke-width:2;fill-opacity:0;" points="1250,213 1268,204 1250,193"/><text style="font-weight:Normal; font-size: 12px; text-anchor: middle; font-family: sans-serif; fill: #333333;" class="" y="189" x="1254"/><text style="font-weight:Normal; font-size: 12px; text-anchor: start; font-family: sans-serif; fill: #333333;" class="" y="204" x="1117"/><text style="font-weight:Normal; font-size: 12px; text-anchor: middle; font-family: sans-serif; fill: #333333;" class="" y="189" x="981"/></g><g transform="translate(0,0)"><rect style="fill: #ffffff;fill-opacity: 1;stroke-opacity:0;stroke-width: 1;stroke:%stroke%;" rx="4" height="14" width="95" y="510" x="1039"/><text style="font-weight:Normal; font-size: 12px; text-anchor: start; font-family: arial,helvetica,sans-serif; fill: #333333;" class="" y="510" x="1039"><tspan alignment-baseline="before-edge" x="1039">looks for movie id</tspan></text></g><g transform="translate(0,0)"><rect style="fill: #ffffff;fill-opacity: 1;stroke-opacity:0;stroke-width: 1;stroke:%stroke%;" rx="4" height="31" width="82" y="167" x="1078"/><text style="font-weight:Normal; font-size: 12px; text-anchor: start; font-family: arial,helvetica,sans-serif; fill: #333333;" class="" y="167" x="1078"><tspan alignment-baseline="before-edge" x="1078">looks for movie</tspan><tspan alignment-baseline="before-edge" dy="17" x="1078">stinger info</tspan></text></g><g transform="translate(0,0)"><g transform="matrix(1,0,0,1,1270,399)"><path style="fill:none;stroke:#333333;stroke-width:3.0;;" d="m0.8992237760897481,64.97099686757691l112.07204380075004,-1.0309677557119008l0,-59.49367579445045l-13.792718189194199,0l-0.8634165351664571,-12.699616875617927l-17.24118650456471,0l-1.7245344764800963,11.668649119906028l-40.51820324927968,1.0309677557119008l-3.4479081053109053,-9.60740414281291l-14.655557188216731,0l-1.7245344764800963,9.60740414281291l-18.966286966465855,0z"/></g><text style="font-weight:bold; font-size: 12px; text-anchor: middle; font-family: arial,helvetica,sans-serif; fill: #333333;" class="svg-txt-center" y="435" x="1326">SpiderService</text></g><g transform="translate(0,0)"><path style="fill:none;stroke:#333333;stroke-width:2;;" d="M967,204 C967,204 1021.5957807868336,245.59138482558626 1043,272 1078.8216435716986,316.19689363946 1079.9356928112277,389.5635427485574 1128,420 1166.9865056011033,444.687989498126 1266,431 1266,431"/><polyline style="fill:#ffffff;stroke:#333333;stroke-width:2;fill-opacity:0;" points="1250,443 1266,431 1247,423"/><text style="font-weight:Normal; font-size: 12px; text-anchor: middle; font-family: sans-serif; fill: #333333;" class="" y="415" x="1253"/><text style="font-weight:Normal; font-size: 12px; text-anchor: start; font-family: sans-serif; fill: #333333;" class="" y="346" x="1085"/><text style="font-weight:Normal; font-size: 12px; text-anchor: middle; font-family: sans-serif; fill: #333333;" class="" y="201" x="987"/></g><g transform="translate(0,0)"><path style="fill:none;stroke:#333333;stroke-width:2;;" d="M1326,397 C1326,321 1324,321  1324,245"/><polyline style="fill:#ffffff;stroke:#333333;stroke-width:2;fill-opacity:0;" points="1334,262 1324,245 1314,262"/><text style="font-weight:Normal; font-size: 12px; text-anchor: middle; font-family: sans-serif; fill: #333333;" class="" y="258" x="1310"/><text style="font-weight:Normal; font-size: 12px; text-anchor: start; font-family: sans-serif; fill: #333333;" class="" y="321" x="1325"/><text style="font-weight:Normal; font-size: 12px; text-anchor: middle; font-family: sans-serif; fill: #333333;" class="" y="384" x="1311"/></g><g transform="translate(0,0)"><rect style="fill: #ffffff;fill-opacity: 1;stroke-opacity:0;stroke-width: 1;stroke:%stroke%;" rx="4" height="48" width="94" y="358" x="1117"/><text style="font-weight:Normal; font-size: 12px; text-anchor: start; font-family: arial,helvetica,sans-serif; fill: #333333;" class="" y="358" x="1117"><tspan alignment-baseline="before-edge" x="1117">looks for movie</tspan><tspan alignment-baseline="before-edge" dy="17" x="1117">info from external</tspan><tspan alignment-baseline="before-edge" dy="17" x="1117">sources</tspan></text></g><g transform="translate(0,0)"><path style="fill:none;stroke:#333333;stroke-width:2;;" d="M492,204 C613.5,204 613.5,362  735,362"/><polyline style="fill:#ffffff;stroke:#333333;stroke-width:2;fill-opacity:0;" points="717,370 735,362 718,350"/><text style="font-weight:Normal; font-size: 12px; text-anchor: middle; font-family: sans-serif; fill: #333333;" class="" y="341" x="731"/><text style="font-weight:Normal; font-size: 12px; text-anchor: start; font-family: sans-serif; fill: #333333;" class="" y="283" x="613"/><text style="font-weight:Normal; font-size: 12px; text-anchor: middle; font-family: sans-serif; fill: #333333;" class="" y="198" x="509"/><polyline style="fill:#ffffff;stroke:#333333;stroke-width:2;fill-opacity:0;" points="508,215 492,204 509,195"/></g><g transform="translate(0,0)"><g transform="matrix(1,0,0,1,382,366)"><path style="fill:none;stroke:#333333;stroke-width:3.0;;" d="m0.9151392411532834,77.9651962410923l114.05561979722349,-1.237161306854281l0,-71.39241095334054l-14.036837095197635,0l-0.8786982437534739,-15.239540250741513l-17.54634024800833,0l-1.755057210577089,14.002378943887233l-41.23533958997489,1.237161306854281l-3.5089330275287973,-11.528884971375494l-14.91494758092853,0l-1.755057210577089,11.528884971375494l-19.30197346144755,0z"/></g><text style="font-weight:bold; font-size: 12px; text-anchor: middle; font-family: arial,helvetica,sans-serif; fill: #333333;" class="svg-txt-center" y="409" x="439">View</text></g><g transform="translate(0,0)"><path style="fill:none;stroke:#333333;stroke-width:2;;" d="M735,362 C618,362 618,405  501,405"/><polyline style="fill:#ffffff;stroke:#333333;stroke-width:2;fill-opacity:0;" points="518,394 501,405 518,414"/><text style="font-weight:Normal; font-size: 12px; text-anchor: middle; font-family: sans-serif; fill: #333333;" class="" y="416" x="516"/><text style="font-weight:Normal; font-size: 12px; text-anchor: start; font-family: sans-serif; fill: #333333;" class="" y="383" x="618"/><text style="font-weight:Normal; font-size: 12px; text-anchor: middle; font-family: sans-serif; fill: #333333;" class="" y="378" x="726"/><polyline style="fill:#ffffff;stroke:#333333;stroke-width:2;fill-opacity:0;" points="717,352 735,362 717,372"/></g><g transform="translate(0,0)"><path style="fill:none;stroke:#333333;stroke-width:2;;" d="M433,246 C433,304 439,304  439,362"/><polyline style="fill:#ffffff;stroke:#333333;stroke-width:2;fill-opacity:0;" points="428,344 439,362 448,344"/><text style="font-weight:Normal; font-size: 12px; text-anchor: middle; font-family: sans-serif; fill: #333333;" class="" y="348" x="452"/><text style="font-weight:Normal; font-size: 12px; text-anchor: start; font-family: sans-serif; fill: #333333;" class="" y="304" x="436"/><text style="font-weight:Normal; font-size: 12px; text-anchor: middle; font-family: sans-serif; fill: #333333;" class="" y="256" x="447"/><polyline style="fill:#ffffff;stroke:#333333;stroke-width:2;fill-opacity:0;" points="423,263 433,246 443,263"/></g><g transform="translate(0,0)"><g transform="matrix(1,0,0,1,1501,177)"><path style="fill:none;stroke:#333333;stroke-width:3.0;;" d="m0.18444520166501796,10.85075343655969l0,34.1925309318896c0,0 13.873543537097387,10.773282460928733 34.21964090732371,9.836137878339406c20.346096049260034,-0.9370107812497227 30.981737220777,-8.430688607134625 30.981737220777,-8.430688607134625l0,-34.1925309318896"/><path style="fill:none;stroke:#333333;stroke-width:3.0;;" d="m34.40222618845685,0.546310869604829c39.6248209565297,3.5417214593288815 44.39245644188724,18.736067783466716 0,19.672677160697624c-44.39199146175427,0.9375459866081403 -47.16567721288122,-23.887553159576324 0,-19.672677160697624z"/></g><text style="font-weight:bold; font-size: 12px; text-anchor: middle; font-family: arial,helvetica,sans-serif; fill: #333333;" class="svg-txt-center" y="217" x="1534">Db</text></g><g transform="translate(0,0)"><g transform="matrix(1,0,0,1,1272,168)"><path style="fill:none;stroke:#333333;stroke-width:3.0;;" d="m0.8355619158356066,72.96742725127869l104.13773981485622,-1.1578560948764425l0,-66.81597435376743l-12.816242565180447,0l-0.8022897008183891,-14.262646644924748l-16.020571530790214,0l-1.6024435400921244,13.104790550048307l-37.64965788649881,1.1578560948764425l-3.2038084164393363,-10.789853883466808l-13.617995617369527,0l-1.6024435400921244,10.789853883466808l-17.623540986539066,0z"/></g><text style="font-weight:bold; font-size: 12px; text-anchor: middle; font-family: arial,helvetica,sans-serif; fill: #333333;" class="svg-txt-center" y="208" x="1324">DbService</text></g><g transform="translate(0,0)"><path style="fill:none;stroke:#333333;stroke-width:2;;" d="M1379,204 C1438,204 1438,204  1497,204"/><polyline style="fill:#ffffff;stroke:#333333;stroke-width:2;fill-opacity:0;" points="1479,213 1497,204 1479,193"/><text style="font-weight:Normal; font-size: 12px; text-anchor: middle; font-family: sans-serif; fill: #333333;" class="" y="189" x="1483"/><text style="font-weight:Normal; font-size: 12px; text-anchor: start; font-family: sans-serif; fill: #333333;" class="" y="204" x="1438"/><text style="font-weight:Normal; font-size: 12px; text-anchor: middle; font-family: sans-serif; fill: #333333;" class="" y="189" x="1393"/></g><g transform="translate(0,0)"><g transform="matrix(1,0,0,1,1504,290)"><path style="fill:none;stroke:#333333;stroke-width:3.0;;" d="m0.394042021738902,11.245326288798225l0,35.435895693049225c0,0 29.6389339201626,11.165038186780688 73.10559648382792,10.19381561936993c43.46665974160098,-0.9710839005678944 66.18825678984177,-8.73725910193952 66.18825678984177,-8.73725910193952l0,-35.435895693049225"/><path style="fill:none;stroke:#333333;stroke-width:3.0;;" d="m73.49566503897601,0.566176719408641c84.65302658894981,3.670511330577204 94.83842967130457,19.417379339229143 0,20.388047239268445c-94.83743630465686,0.9716385679393453 -100.76303768206442,-24.75619145628819 0,-20.388047239268445z"/></g><text style="font-weight:bold; font-size: 12px; text-anchor: middle; font-family: arial,helvetica,sans-serif; fill: #333333;" class="svg-txt-center" y="331" x="1574">Wiki</text></g><g transform="translate(0,0)"><path style="fill:none;stroke:#333333;stroke-width:2;;" d="M807,204 C807,204 784.6024495872904,201.3513761034576 779,209 756.1563846535576,240.18675491852628 810.2716205539353,288.93322357282904 794,324 784.1537063580716,345.21963062211836 735,362 735,362"/><polyline style="fill:#ffffff;stroke:#333333;stroke-width:2;fill-opacity:0;" points="748,346 735,362 754,365"/><text style="font-weight:Normal; font-size: 12px; text-anchor: middle; font-family: sans-serif; fill: #333333;" class="" y="365" x="758"/><text style="font-weight:Normal; font-size: 12px; text-anchor: start; font-family: sans-serif; fill: #333333;" class="" y="266" x="786"/><text style="font-weight:Normal; font-size: 12px; text-anchor: middle; font-family: sans-serif; fill: #333333;" class="" y="220" x="798"/><polyline style="fill:#ffffff;stroke:#333333;stroke-width:2;fill-opacity:0;" points="790,193 807,204 789,213"/></g><g transform="translate(0,0)"><path style="fill:none;stroke:#333333;stroke-width:2;stroke-dasharray:4,3;;" d="M737,362 C737,362 782.4188283609143,430.11407045285176 802,466 817.3557553756984,494.142113542154 843,553 843,553"/><polyline style="fill:#ffffff;stroke:#333333;stroke-width:2;fill-opacity:0;" points="826,541 843,553 845,533"/><text style="font-weight:Normal; font-size: 12px; text-anchor: middle; font-family: sans-serif; fill: #333333;" class="" y="532" x="850"/><text style="font-weight:Normal; font-size: 12px; text-anchor: start; font-family: sans-serif; fill: #333333;" class="" y="454" x="802"/><text style="font-weight:Normal; font-size: 12px; text-anchor: middle; font-family: sans-serif; fill: #333333;" class="" y="365" x="756"/></g><g transform="translate(0,0)"><g transform="matrix(1,0,0,1,1505,359)"><path style="fill:none;stroke:#333333;stroke-width:3.0;;" d="m0.38845277320359844,10.85075343655969l0,34.1925309318896c0,0 29.21852350994753,10.773282460928733 72.06863766845449,9.836137878339406c42.85011137647189,-0.9370107812497227 65.24941626800005,-8.430688607134625 65.24941626800005,-8.430688607134625l0,-34.1925309318896"/><path style="fill:none;stroke:#333333;stroke-width:3.0;;" d="m72.4531733362955,0.546310869604829c83.45227443875196,3.5417214593288815 93.4932037185201,18.736067783466716 0,19.672677160697624c-93.49222444217946,0.9375459866081403 -99.33377473621955,-23.887553159576324 0,-19.672677160697624z"/></g><text style="font-weight:bold; font-size: 12px; text-anchor: middle; font-family: arial,helvetica,sans-serif; fill: #333333;" class="svg-txt-center" y="399" x="1574">mediastinger.com</text></g><g transform="translate(0,0)"><g transform="matrix(1,0,0,1,1505,422)"><path style="fill:none;stroke:#333333;stroke-width:3.0;;" d="m0.38845277320359844,10.653467010440423l0,33.57084855130979c0,0 29.21852350994753,10.577404598002756 72.06863766845449,9.657299007824143c42.85011137647189,-0.9199742215906367 65.24941626800005,-8.277403359732176 65.24941626800005,-8.277403359732176l0,-33.57084855130979"/><path style="fill:none;stroke:#333333;stroke-width:3.0;;" d="m72.4531733362955,0.536377944702923c83.45227443875196,3.4773265237047197 93.4932037185201,18.395412005585502 0,19.31499212141221c-93.49222444217946,0.9204996959425377 -99.33377473621955,-23.45323401122039 0,-19.31499212141221z"/></g><text style="font-weight:bold; font-size: 12px; text-anchor: middle; font-family: arial,helvetica,sans-serif; fill: #333333;" class="svg-txt-center" y="462" x="1574">aftercredits.com</text></g><g transform="translate(0,0)"><path style="fill:none;stroke:#333333;stroke-width:2;;" d="M1385,431 C1433,431 1433,382  1481,382"/><polyline style="fill:#ffffff;stroke:#333333;stroke-width:2;fill-opacity:0;" points="1464,392 1481,382 1463,372"/><text style="font-weight:Normal; font-size: 12px; text-anchor: middle; font-family: sans-serif; fill: #333333;" class="" y="376" x="1462"/><text style="font-weight:Normal; font-size: 12px; text-anchor: start; font-family: sans-serif; fill: #333333;" class="" y="406" x="1433"/><text style="font-weight:Normal; font-size: 12px; text-anchor: middle; font-family: sans-serif; fill: #333333;" class="" y="411" x="1390"/></g><g transform="translate(0,0)"><g transform="matrix(1,0,0,1,847,512)"><path style="fill:rgb(204,204,204);stroke:rgb(178,178,178);stroke-width:3.0;;" d="m1.2334485424239907,82.96296523090592l153.7271397266925,-1.3164665188321196l0,-75.96884755291366l-18.919215215266377,0l-1.1843324154938126,-16.21643385655828l-23.649415116880796,0l-2.365511892516946,14.899967337726158l-55.578066403879205,1.3164665188321196l-4.72943147188664,-12.267916059284179l-20.102755435164543,0l-2.365511892516946,12.267916059284179l-26.015703361081478,0z"/></g><text style="font-weight:bold; font-size: 12px; text-anchor: middle; font-family: arial,helvetica,sans-serif; fill: #333333;" class="svg-txt-center" y="548" x="924">VotingService</text><text style="font-weight:bold; font-size: 12px; text-anchor: middle; font-family: arial,helvetica,sans-serif; fill: #333333;" class="svg-txt-center" y="565" x="924">(TBD)</text></g><g transform="translate(0,0)"><path style="fill:none;stroke:#333333;stroke-width:2;;" d="M1299,523 C1299,523 1243.2863433778946,480.5268688990816 1238,449 1234.058036141312,425.49078599444425 1248.3836724589478,400.83043258756686 1263,382 1268.7265457302628,374.6224057971836 1281.3042715262334,374.0729397571689 1286,366 1306.3629525096987,330.9918239933872 1297,245 1297,245"/><polyline style="fill:#ffffff;stroke:#333333;stroke-width:2;fill-opacity:0;" points="1308,261 1297,245 1288,263"/><text style="font-weight:Normal; font-size: 12px; text-anchor: middle; font-family: sans-serif; fill: #333333;" class="" y="257" x="1281"/><text style="font-weight:Normal; font-size: 12px; text-anchor: start; font-family: sans-serif; fill: #333333;" class="" y="370" x="1263"/><text style="font-weight:Normal; font-size: 12px; text-anchor: middle; font-family: sans-serif; fill: #333333;" class="" y="522" x="1279"/></g><g transform="translate(0,0)"><rect style="fill: #ffffff;fill-opacity: 1;stroke-opacity:0;stroke-width: 1;stroke:%stroke%;" rx="4" height="12" width="67" y="302" x="1332"/><text style="font-weight:Normal; font-size: 12px; text-anchor: start; font-family: arial,helvetica,sans-serif; fill: #333333;" class="" y="302" x="1332"><tspan alignment-baseline="before-edge" x="1332">puts new info</tspan></text></g><g transform="translate(0,0)"><rect style="fill: #ffffff;fill-opacity: 1;stroke-opacity:0;stroke-width: 1;stroke:%stroke%;" rx="4" height="29" width="64" y="286" x="1231"/><text style="font-weight:Normal; font-size: 12px; text-anchor: start; font-family: arial,helvetica,sans-serif; fill: #333333;" class="" y="286" x="1231"><tspan alignment-baseline="before-edge" x="1231">builds cache</tspan><tspan alignment-baseline="before-edge" dy="17" x="1231">based on db</tspan></text></g><text style="font-weight:Normal; font-size: 16px; text-anchor: end; font-family: Arial; fill: #ccc;" y="630" x="1665">www.sketchboard.io</text></svg>